Coordinates
version=1
nRows=7
nColumns=40
inDegrees=yes

Units are S.I. units (second, meters, Newtons, ...)
Angles are in degrees.

endheader
time	pelvis_tilt	pelvis_list	pelvis_rotation	pelvis_tx	pelvis_ty	pelvis_tz	hip_flexion_r	hip_adduction_r	hip_rotation_r	knee_angle_r	knee_angle_r_beta	ankle_angle_r	subtalar_angle_r	mtp_angle_r	hip_flexion_l	hip_adduction_l	hip_rotation_l	knee_angle_l	knee_angle_l_beta	ankle_angle_l	subtalar_angle_l	mtp_angle_l	lumbar_extension	lumbar_bending	lumbar_rotation	arm_flex_r	arm_add_r	arm_rot_r	elbow_flex_r	pro_sup_r	wrist_flex_r	wrist_dev_r	arm_flex_l	arm_add_l	arm_rot_l	elbow_flex_l	pro_sup_l	wrist_flex_l	wrist_dev_l
     12.27500000	     -4.33661057	     -2.82717847	     -2.81911391	      1.03710483	      0.91987336	      0.41129395	     31.73977989	     -4.19304950	    -13.28643700	     15.84740930	     15.84740930	      0.24162931	     -0.13526026	      8.68146463	     -2.99823578	     -2.83451177	    -12.00000395	     10.82476289	     10.82476289	     18.19684318	     -2.40778397	     -5.20451415	    -12.54616961	      4.34634720	      1.77476743	    -20.47597575	    -13.86785163	     -7.13073953	     27.16993693	     46.88919366	      0.00000000	      0.00000000	     26.90724110	    -21.57206439	     -1.78384726	     83.20901896	     47.42153066	      0.00000000	      0.00000000
     12.28707143	     -4.24379168	     -2.62406372	     -2.65993586	      1.03875587	      0.91738939	      0.41311161	     31.23817551	     -4.14774317	    -13.53157201	     15.51299176	     15.51299176	      0.62561626	      0.17233905	      8.98165809	     -4.01187113	     -2.71390929	    -12.13387878	     10.46282304	     10.46282304	     18.75816418	     -1.74297033	     -5.46591862	    -12.32344507	      4.14180439	      1.83174268	    -22.42213562	    -13.53755192	     -7.48430812	     27.33276955	     46.87953577	      0.00000000	      0.00000000	     27.62592157	    -21.65372376	     -1.91769532	     85.46199241	     47.48941733	      0.00000000	      0.00000000
     12.29914286	     -4.20490300	     -2.51168967	     -2.47839709	      1.04045022	      0.91491974	      0.41514654	     30.86115571	     -4.06232267	    -13.67861865	     15.74034590	     15.74034590	      0.74561609	      0.17410931	      8.51707516	     -4.83705560	     -2.76864658	    -12.34321395	     10.37592847	     10.37592847	     19.45179284	     -0.96001440	     -5.54227178	    -12.04419261	      4.04592710	      1.75787964	    -24.19009655	    -13.21912225	     -8.02981151	     27.91310403	     46.86122470	      0.00000000	      0.00000000	     27.98501694	    -21.89920593	     -2.13389524	     87.83854489	     47.57245696	      0.00000000	      0.00000000
     12.31121429	     -4.13529608	     -2.43247369	     -2.25401568	      1.04221889	      0.91262085	      0.41734392	     30.41065855	     -3.95604499	    -13.62419190	     16.18594087	     16.18594087	      0.14566569	     -0.26727396	      6.07027866	     -5.49184157	     -2.97037314	    -12.74510319	     10.73425776	     10.73425776	     20.56287694	      0.21900940	     -4.99380393	    -11.83053249	      4.00110773	      1.49527616	    -25.65321159	    -12.92844946	     -8.86833352	     28.73650435	     46.83296983	      0.00000000	      0.00000000	     28.03603338	    -22.16436034	     -2.70765376	     90.37564199	     47.71262486	      0.00000000	      0.00000000
     12.32328571	     -4.05185747	     -2.44039193	     -2.05105604	      1.04391045	      0.91063383	      0.41971098	     30.15992903	     -3.84294419	    -13.52078934	     17.32084697	     17.32084697	      0.22308427	     -0.68039454	      5.26664159	     -6.16236802	     -3.21270926	    -12.65278917	     11.01436588	     11.01436588	     21.09452444	      0.35793666	     -4.99087604	    -11.61558076	      4.02240108	      1.67106041	    -26.56435736	    -12.57348415	     -8.84384351	     28.30194951	     46.83402674	      0.00000000	      0.00000000	     28.59392905	    -21.81062369	     -2.87421746	     91.59792748	     47.75879320	      0.00000000	      0.00000000
     12.33535714	     -4.01123961	     -2.56428416	     -1.71536012	      1.04563084	      0.90912621	      0.42212082	     29.78242676	     -3.65837763	    -13.56256015	     18.30714120	     18.30714120	      0.25119860	     -1.06914282	      4.74760878	     -6.73769697	     -3.63052807	    -12.39092326	     11.33717793	     11.33717793	     21.48949254	      0.47049570	     -5.03449334	    -11.36166810	      4.23368648	      1.61590768	    -27.27392967	    -12.26543137	     -8.81928823	     27.98389852	     46.83618571	      0.00000000	      0.00000000	     28.90847145	    -21.77238368	     -3.03957870	     92.33107304	     47.78862669	      0.00000000	      0.00000000
     12.34742857	     -3.99384628	     -2.57556205	     -1.54098779	      1.04719331	      0.90761973	      0.42493966	     29.51550964	     -3.45105611	    -13.07488971	     19.26213658	     19.26213658	     -1.37700497	     -2.58221189	     -0.77532385	     -6.77185525	     -4.18399825	    -13.13128185	     12.82315044	     12.82315044	     23.05724430	      1.89446627	     -3.36511652	    -11.25082234	      4.18364080	      1.31776263	    -26.98057264	    -12.02179383	     -8.87982529	     26.97831028	     46.82729433	      0.00000000	      0.00000000	     28.13816490	    -21.58478816	     -4.26728869	     95.55532579	     48.00874625	      0.00000000	      0.00000000
